<svg id="Layer_1" data-name="Layer 1" xmlns="http://www.w3.org/2000/svg" viewBox="0 0 269.24 100.39"><defs><style>.cls-1{fill:#fff;}.cls-2{fill:#6f57fa;}</style></defs><title>logo</title><path class="cls-1" d="M34,4.25Q50.58,4.25,60.15,21q2.66,7.26,2.66,10.66V57.29c0,2.42-.73,3.63-2.18,3.63h-.48c-1.46,0-2.18-1.21-2.18-3.63V49.54Q48.34,62.38,33.26,62.37q-15.31,0-24.94-15A30.59,30.59,0,0,1,4.68,33.07q0-17,17.2-26.4A35.9,35.9,0,0,1,34,4.25Z"/><path class="cls-1" d="M9.53,33.07v.24q0,16,16.47,23a25.12,25.12,0,0,0,7.26,1.21H34q14.71,0,22-14.77A21.94,21.94,0,0,0,58,33.55v-.48q0-14.71-14.78-22A21.86,21.86,0,0,0,34,9.09h-.24Q18.18,9.09,11,24.83A25,25,0,0,0,9.53,33.07Z"/><path class="cls-1" d="M109.39,4.19q17,0,26.16,16.47a30,30,0,0,1,2.9,12.59q0,16.95-16.46,26.16a30.24,30.24,0,0,1-12.6,2.9Q95,62.31,85.17,49.48V93.33c0,1.9-.56,3.11-1.69,3.63H82c-1.13-.52-1.69-1.73-1.69-3.63V32q0-9.87,8.72-19.62Q98.25,4.19,109.39,4.19Z"/><path class="cls-1" d="M85.17,33v.48q0,13.56,13.08,21.31a24.08,24.08,0,0,0,11.14,2.67h.24q14.18,0,21.8-14a24.3,24.3,0,0,0,2.18-9.93V33q0-14.71-14.77-22A22.36,22.36,0,0,0,109.15,9q-14.72,0-22,14.77A22.21,22.21,0,0,0,85.17,33Z"/><path class="cls-1" d="M172.38,5q11.2,0,15.75,11.39l-.49.24h-4.12c-3.1-4.52-6.5-6.78-10.17-6.78h-1q-8.3,0-11.38,9.2a19,19,0,0,0-.48,3.63V60c-.33,1.62-1.13,2.42-2.43,2.42-1.61-.32-2.42-1.13-2.42-2.42V7.88c.32-1.61,1.13-2.42,2.42-2.42q2.67,0,2.67,4.36H161A15.71,15.71,0,0,1,172.38,5Z"/><path class="cls-1" d="M234.1,4.25q13.32,0,22.77,11.38a29.14,29.14,0,0,1,6.05,17.68q0,17.8-17.92,26.88a34.12,34.12,0,0,1-11.62,2.18q-15.33,0-24.95-15a30.57,30.57,0,0,1-3.63-14.29q0-17,17.19-26.4A35.9,35.9,0,0,1,234.1,4.25Z"/><path class="cls-1" d="M209.64,33.07v.24q0,16,16.47,23a25.18,25.18,0,0,0,7.27,1.21h.72q14.72,0,22-14.77a21.94,21.94,0,0,0,1.94-9.21v-.48q0-14.71-14.78-22a21.86,21.86,0,0,0-9.2-1.94h-.24q-15.56,0-22.77,15.74A25.21,25.21,0,0,0,209.64,33.07Z"/><circle class="cls-2" cx="33.75" cy="33.67" r="8.04"/><circle class="cls-2" cx="109.83" cy="33.66" r="8.04"/><circle class="cls-2" cx="233.86" cy="33.82" r="8.04"/></svg>